# xmcd
#
# Track frame offsets:
#	150
#	13351
#	23872
#	37847
#	50942
#	72017
#	101964
#	120398
#	135554
#	145750
#	156918
#	172839
#	189829
#	204581
#	221322
#	232903
#	245452
#	258262
#	287965
#	300404
#	313500
#
# Disc length: 4330
#
# Revision: 1
# Processed by: cddbd v1.5.1PL0 Copyright (c) Steve Scherf et al.
# Submitted via: ExactAudioCopy v0.95a5
# Normalized: r0:DSETVAR1,TDELIM( - )
#
DISCID=2110e815
DTITLE=Various Artist - Oryginal Artists - Blues
DYEAR=1900
DGENRE=Blues
TTITLE0=John Lee Hooker - I want to hug you
TTITLE1=Canned Heat - Dimples
TTITLE2=Canned Heat - Louise
TTITLE3=Elmore James - Dust My Broom
TTITLE4=Mike Bloomfield - Women lovin' each other
TTITLE5=Gregg Smith - Joung men don't get the blues
TTITLE6=Steely Dan - Don't let me in
TTITLE7=Pinetop Perkins - Yonder's wall
TTITLE8=Canned Heat - Rollin' and tumblin
TTITLE9=Canned Heat - Spoonful
TTITLE10=Pepe Ahlquist and Rollin' Tumbleweed - Don't stare at me
TTITLE11=Ike and Tina Turner - I smell truble
TTITLE12=Johny Winter - Let to music play
TTITLE13=Pepe Ahlquist and Rollin' Tumbleweed - What a women
TTITLE14=Ray Charles - Ray Charles' blues
TTITLE15=muddy Waters - Mean Mistreater
TTITLE16=Jimmy Reed - Shame, shame, shame
TTITLE17=Rufus Thomas - Today
TTITLE18=Lightnin Hopkins - My baby's gone
TTITLE19=John Lee Hooker - I'm so excited
TTITLE20=Canned Heat - Can't hold on
EXTD=
EXTT0=
EXTT1=
EXTT2=
EXTT3=
EXTT4=
EXTT5=
EXTT6=
EXTT7=
EXTT8=
EXTT9=
EXTT10=
EXTT11=
EXTT12=
EXTT13=
EXTT14=
EXTT15=
EXTT16=
EXTT17=
EXTT18=
EXTT19=
EXTT20=
PLAYORDER=
